<svg width="48" height="48" viewBox="0 0 48 48" fill="none" xmlns="http://www.w3.org/2000/svg">
<g id="vector">
<path id="Vector" d="M12.4002 35.3998C13.5561 35.3998 14.4284 34.9331 15.0171 33.9998C15.6058 33.0665 15.6669 32.0831 15.2002 31.0498L13.2502 26.8498H17.8502C19.151 26.8498 20.2596 26.3917 21.1758 25.4755C22.0921 24.5592 22.5502 23.4506 22.5502 22.1498V15.2998C22.5502 13.9852 22.0921 12.8649 21.1758 11.9389C20.2596 11.0128 19.151 10.5498 17.8502 10.5498H11.0002C9.6856 10.5498 8.56528 11.0128 7.63924 11.9389C6.71321 12.8649 6.25019 13.9852 6.25019 15.2998V25.5998C6.25019 25.9331 6.29186 26.2631 6.37519 26.5896C6.45853 26.9162 6.56686 27.2362 6.7002 27.5498L9.55019 33.5998C9.81686 34.1665 10.2045 34.6081 10.713 34.9248C11.2215 35.2415 11.7839 35.3998 12.4002 35.3998ZM31.5502 35.3998C32.7029 35.3998 33.5827 34.9331 34.1897 33.9998C34.7967 33.0665 34.8502 32.0831 34.3502 31.0498L32.4002 26.8498H37.0002C38.301 26.8498 39.4096 26.3917 40.3258 25.4755C41.2421 24.5592 41.7002 23.4506 41.7002 22.1498V15.2998C41.7002 13.9852 41.2421 12.8649 40.3258 11.9389C39.4096 11.0128 38.301 10.5498 37.0002 10.5498H30.1502C28.8494 10.5498 27.7408 11.0128 26.8245 11.9389C25.9083 12.8649 25.4502 13.9852 25.4502 15.2998V25.5998C25.4502 25.9331 25.4835 26.2665 25.5502 26.5998C25.6169 26.9331 25.7169 27.2498 25.8502 27.5498L28.7002 33.5998C28.9669 34.1665 29.3545 34.6081 29.863 34.9248C30.3715 35.2415 30.9339 35.3998 31.5502 35.3998Z" fill="#BEAC6F"/>
</g>
</svg>
