<svg width="80" height="80" viewBox="0 0 80 80" fill="none" xmlns="http://www.w3.org/2000/svg">
<g id="Play" opacity="0.8">
<path id="Icon" fill-rule="evenodd" clip-rule="evenodd" d="M39.998 72.0029C57.6712 72.0029 71.998 57.676 71.998 40.0029C71.998 22.3298 57.6712 8.00293 39.998 8.00293C22.3249 8.00293 7.99805 22.3298 7.99805 40.0029C7.99805 57.676 22.3249 72.0029 39.998 72.0029ZM38.2168 28.6747C36.9894 27.8565 35.4112 27.7802 34.1106 28.4762C32.81 29.1723 31.998 30.5278 31.998 32.0029V48.0029C31.998 49.4781 32.81 50.8336 34.1106 51.5296C35.4112 52.2257 36.9894 52.1494 38.2168 51.3311L50.2168 43.3311C51.3296 42.5893 51.998 41.3403 51.998 40.0029C51.998 38.6655 51.3296 37.4166 50.2168 36.6747L38.2168 28.6747Z" fill="white"/>
</g>
</svg>
